<svg width="64" height="64" viewBox="0 0 64 64" fill="none" xmlns="http://www.w3.org/2000/svg">
<path d="M18.5 55C6.1 47 16.6619 24.6667 23.3286 15.5C22.3286 19.5 21.7286 28.2 27.3286 31C30.8286 15.5 39.3286 8 42.8286 7C37.2286 18.6 42.6572 27.3974 46.8286 31C51 34.6026 54.9 46.6 44.5 55C34.1 63.4 22.6667 58.5 18.5 55Z" fill="#FA4107"/>
<path fill-rule="evenodd" clip-rule="evenodd" d="M44.6991 5.42554L43.7292 7.43473C38.3782 18.5188 43.5524 26.8492 47.4822 30.2432C49.808 32.2518 51.9211 36.4272 52.1276 41.1573C52.3371 45.9559 50.5892 51.3672 45.1283 55.7779C39.6898 60.1706 33.9486 61.0975 29.0327 60.454C24.1874 59.8198 20.1354 57.6617 17.9052 55.8061C11.1751 51.4227 10.8547 43.2371 12.7939 35.4459C14.7558 27.5637 19.1301 19.5728 22.5199 14.9118L24.2987 15.7425C23.8215 17.6515 23.441 20.6936 23.8439 23.5609C24.1808 25.9588 25.0369 28.0764 26.6818 29.4033C28.4956 22.2046 31.3766 16.7713 34.2832 12.9564C35.8267 10.9305 37.3816 9.35562 38.7938 8.2144C40.1904 7.08576 41.4985 6.34 42.5539 6.03846L44.6991 5.42554ZM35.874 14.1685C32.9631 17.9892 30.0232 23.607 28.304 31.2202L28.0229 32.4652L26.8814 31.8944C23.6539 30.2806 22.3085 27.0074 21.8633 23.8391C21.6708 22.4687 21.6389 21.0751 21.7068 19.7653C18.995 24.236 16.1766 30.136 14.7347 35.929C12.8314 43.5759 13.4232 50.5346 19.0421 54.1597L19.095 54.1938L19.1432 54.2343C21.0901 55.8697 24.8145 57.8848 29.2923 58.4709C33.7347 59.0525 38.9102 58.2294 43.8717 54.222C48.8108 50.2328 50.3129 45.4454 50.1295 41.2446C49.9432 36.9753 48.0206 33.3508 46.175 31.7568C42.0855 28.2249 36.9051 20.0098 40.8228 9.1821C40.576 9.35825 40.3183 9.55388 40.0509 9.76994C38.7756 10.8006 37.3305 12.2569 35.874 14.1685Z" fill="black"/>
<path d="M25.8417 56.621C19.7039 52.5175 24.9319 41.0619 28.2318 36.36C27.7368 38.4117 27.4398 42.8743 30.2117 44.3105C31.9441 36.36 36.1515 32.5129 37.8839 32C35.112 37.9501 37.7991 42.4626 39.8639 44.3105C41.9286 46.1584 43.8591 52.3123 38.7112 56.621C33.5634 60.9296 27.9041 58.4162 25.8417 56.621Z" fill="#FFDF6D"/>
<path fill-rule="evenodd" clip-rule="evenodd" d="M39.7272 30.4114L38.7904 32.4223C36.2502 37.8751 38.7061 41.9324 40.5307 43.5654C41.7987 44.7002 42.8849 46.9734 42.9914 49.5009C43.1006 52.0937 42.1844 55.0181 39.3531 57.3878C36.5405 59.742 33.5487 60.2487 30.985 59.9009C28.4946 59.5631 26.409 58.4222 25.2334 57.4169C21.6491 54.9779 21.5607 50.4971 22.5253 46.4814C23.5133 42.368 25.7085 38.2145 27.4132 35.7855L29.2039 36.5945C28.9777 37.532 28.7979 39.0323 28.9876 40.4317C29.0952 41.2252 29.3085 41.91 29.643 42.4466C30.5581 39.1535 31.8892 36.614 33.2421 34.7738C34.0267 33.7068 34.8229 32.8691 35.5559 32.2552C36.2726 31.655 36.9822 31.2241 37.6 31.0412L39.7272 30.4114ZM34.8535 35.9586C33.4545 37.8613 32.0262 40.6805 31.1888 44.5234L30.9108 45.799L29.7517 45.1984C27.9392 44.2593 27.2338 42.3825 27.0057 40.7004C26.9932 40.6077 26.9819 40.5147 26.9719 40.4218C25.959 42.392 25.0126 44.6894 24.47 46.9485C23.5347 50.8423 23.8956 54.117 26.3975 55.7897L26.4503 55.825L26.4983 55.8667C27.3944 56.6468 29.1465 57.6332 31.2539 57.9191C33.3224 58.1997 35.7342 57.8087 38.0694 55.8542C40.3859 53.9153 41.0784 51.6084 40.9932 49.5851C40.9052 47.4965 39.9938 45.7688 39.197 45.0557C37.272 43.3329 34.9194 39.5841 35.9455 34.6395C35.5927 35.0148 35.2247 35.4536 34.8535 35.9586Z" fill="black"/>
</svg>
